<svg class="main-svg" xmlns="http://www.w3.org/2000/svg" xmlns:xlink="http://www.w3.org/1999/xlink" width="900" height="650" style="" viewBox="0 0 900 650"><rect x="0" y="0" width="900" height="650" style="fill: rgb(255, 255, 255); fill-opacity: 1;"/><defs id="defs-60ef19"><g class="clips"><clipPath id="clip60ef19xyplot" class="plotclip"><rect width="367.2" height="224.82500000000002"/></clipPath><clipPath id="clip60ef19x2y2plot" class="plotclip"><rect width="367.2" height="224.82500000000002"/></clipPath><clipPath id="clip60ef19x3y3plot" class="plotclip"><rect width="367.2" height="224.825"/></clipPath><clipPath id="clip60ef19x4y4plot" class="plotclip"><rect width="367.2" height="224.825"/></clipPath><clipPath class="axesclip" id="clip60ef19x"><rect x="64" y="0" width="367.2" height="650"/></clipPath><clipPath class="axesclip" id="clip60ef19y"><rect x="0" y="62" width="900" height="224.82500000000002"/></clipPath><clipPath class="axesclip" id="clip60ef19xy"><rect x="64" y="62" width="367.2" height="224.82500000000002"/></clipPath><clipPath class="axesclip" id="clip60ef19y2"><rect x="0" y="62" width="900" height="224.82500000000002"/></clipPath><clipPath class="axesclip" id="clip60ef19xy2"><rect x="64" y="62" width="367.2" height="224.82500000000002"/></clipPath><clipPath class="axesclip" id="clip60ef19y3"><rect x="0" y="366.17499999999995" width="900" height="224.825"/></clipPath><clipPath class="axesclip" id="clip60ef19xy3"><rect x="64" y="366.17499999999995" width="367.2" height="224.825"/></clipPath><clipPath class="axesclip" id="clip60ef19y4"><rect x="0" y="366.17499999999995" width="900" height="224.825"/></clipPath><clipPath class="axesclip" id="clip60ef19xy4"><rect x="64" y="366.17499999999995" width="367.2" height="224.825"/></clipPath><clipPath class="axesclip" id="clip60ef19x2"><rect x="512.8" y="0" width="367.2" height="650"/></clipPath><clipPath class="axesclip" id="clip60ef19x2y"><rect x="512.8" y="62" width="367.2" height="224.82500000000002"/></clipPath><clipPath class="axesclip" id="clip60ef19x2y2"><rect x="512.8" y="62" width="367.2" height="224.82500000000002"/></clipPath><clipPath class="axesclip" id="clip60ef19x2y3"><rect x="512.8" y="366.17499999999995" width="367.2" height="224.825"/></clipPath><clipPath class="axesclip" id="clip60ef19x2y4"><rect x="512.8" y="366.17499999999995" width="367.2" height="224.825"/></clipPath><clipPath class="axesclip" id="clip60ef19x3"><rect x="64" y="0" width="367.2" height="650"/></clipPath><clipPath class="axesclip" id="clip60ef19x3y"><rect x="64" y="62" width="367.2" height="224.82500000000002"/></clipPath><clipPath class="axesclip" id="clip60ef19x3y2"><rect x="64" y="62" width="367.2" height="224.82500000000002"/></clipPath><clipPath class="axesclip" id="clip60ef19x3y3"><rect x="64" y="366.17499999999995" width="367.2" height="224.825"/></clipPath><clipPath class="axesclip" id="clip60ef19x3y4"><rect x="64" y="366.17499999999995" width="367.2" height="224.825"/></clipPath><clipPath class="axesclip" id="clip60ef19x4"><rect x="512.8" y="0" width="367.2" height="650"/></clipPath><clipPath class="axesclip" id="clip60ef19x4y"><rect x="512.8" y="62" width="367.2" height="224.82500000000002"/></clipPath><clipPath class="axesclip" id="clip60ef19x4y2"><rect x="512.8" y="62" width="367.2" height="224.82500000000002"/></clipPath><clipPath class="axesclip" id="clip60ef19x4y3"><rect x="512.8" y="366.17499999999995" width="367.2" height="224.825"/></clipPath><clipPath class="axesclip" id="clip60ef19x4y4"><rect x="512.8" y="366.17499999999995" width="367.2" height="224.825"/></clipPath></g><g class="gradients"/><g class="patterns"/></defs><g class="bglayer"/><g class="layer-below"><g class="imagelayer"/><g class="shapelayer"/></g><g class="cartesianlayer"><g class="subplot xy"><g class="layer-subplot"><g class="shapelayer"/><g class="imagelayer"/></g><g class="minor-gridlayer"><g class="x"/><g class="y"/></g><g class="gridlayer"><g class="x"/><g class="y"/></g><g class="zerolinelayer"/><g class="layer-between"><g class="shapelayer"/><g class="imagelayer"/></g><path class="xlines-below"/><path class="ylines-below"/><g class="overlines-below"/><g class="xaxislayer-below"/><g class="yaxislayer-below"/><g class="overaxes-below"/><g class="overplot"><g class="xy" transform="translate(64,62)" clip-path="url(#clip60ef19xyplot)"><g class="scatterlayer mlayer"><g class="trace scatter trace66e519" style="stroke-miterlimit: 2; opacity: 1;"><g class="fills"/><g class="errorbars"/><g class="lines"><path class="js-line" d="M5.47,199.96L23.02,173.45L32.58,138.92L36.92,173.42L46.48,115.71L51.2,101.97L53.06,101.24L56.66,98.56L58.38,102.36L60.26,100.29L62.05,103.28L63.96,101.87L65.82,125.81L69.03,118.83L71.77,129.27L75.24,133.69L79.09,133.2L82.89,213.58L106.87,198.5L123.84,202.91L142.62,205.93L162.74,211.62L185.66,187.7L198.92,176.11L209.08,184.91L227.8,141.97L232.45,136.58L236.56,160.81L243.72,154.79L249.95,136.63L254.07,144.73L259.02,145.11L264.02,158.18L270.76,167.09L279.02,182.19L290.7,197.58L307.32,195.36L323.12,169.11L331.77,146.08L336.88,144.73L341.83,145.99L346.93,166.17L355.02,150.61" style="vector-effect: none; fill: none; stroke: rgb(230, 75, 53); stroke-opacity: 1; stroke-width: 1.5px; opacity: 1;"/></g><g class="points"/><g class="text"/></g><g class="trace scatter tracec56293" style="stroke-miterlimit: 2; opacity: 1;"><g class="fills"/><g class="errorbars"/><g class="lines"><path class="js-line" d="M0,47.23L0.53,11.24L1.02,19.57L1.3,22.03L1.6,52.85L2.2,45.94L2.72,32.89L3.1,54.97L3.74,47.3L4.57,14.2L4.82,23.27L5.13,22.78L6.03,20.63L6.32,22.53L7.05,81.01L8.2,75.39L9.21,107.99L11.62,100.14L13.4,59.63L14.11,110.5L17.67,20.76L17.96,32.69L18.34,31.5L18.71,52.73L19.32,89.24L20.71,34.53L21.43,23.52L21.74,86.89L23.06,40.19L23.51,106.01L25.55,62.06L26.3,65.07L27.09,101.93L29.01,95.37L31.4,40.19L31.85,57.78L32.52,22.28L32.83,76.41L33.86,74.98L34.86,16.4L35.44,33.18L35.83,22.41L36.13,22.28L36.43,34.62L37.11,15.24L37.37,31.7L37.74,92.94L39.25,72.48L40.2,133.45L44.3,56.54L44.95,75.72L45.97,43.16L47.16,25.77L47.49,25.42L47.81,21.65L48.11,40.77L49.77,13.29L50.02,24.83L50.33,28.56L50.68,16.11L51.51,24L51.83,21.53L52.9,13.29L53.14,16.69L53.41,21.27L53.7,13.9L53.95,15.09L54.2,23.76L54.51,15.82L54.77,14.5L55.02,15.39L55.28,22.53L55.86,12.98L56.35,15.97L56.61,13.29L56.85,16.83L57.12,15.09L57.37,12.67L57.61,19.17L57.89,14.05L58.14,12.98L58.38,13.29L58.63,19.31L59.17,20.76L59.71,14.2L59.96,19.31L60.51,12.67L60.75,13.75L61,17.11L61.26,18.09L61.53,12.82L61.78,13.29L62.02,16.26L62.53,13.44L62.77,16.83L63.04,18.22L63.31,29.84L63.67,30.26L64.03,21.91L65.1,14.35L65.35,14.05L66.1,17.39L66.37,23.76L66.98,18.77L67.26,81.3L69.15,39.1L69.59,24.36L69.91,33.96L70.3,27.91L70.64,27.91L70.98,42.61L71.46,30.47L71.82,60.26L72.54,32.69L72.92,28.78L73.26,35.55L74.19,47.3L74.72,41.34L75.18,94.14L76.74,38.76L77.97,26.91L78.3,29.63L78.66,24.36L78.97,25.07L79.29,26.91L79.63,74.45L80.62,56.94L81.28,27.58L81.62,30.26L81.98,32.4L82.36,31.9L82.73,29.42L83.08,35.37L83.49,33.57L83.88,28.35L84.22,19.04L84.5,46.15L85.75,77.87L86.82,90.57L88.25,81.66L89.42,112.6L91.79,137.41L95.98,110.88L99.58,43.16L100.06,49.3L100.62,107.41L102.73,70.61L103.63,71.35L104.55,56.2L105.21,67.71L106.06,33.86L106.45,31.29L106.82,65.95L107.63,93.48L109.16,111.55L111.48,69.95L112.37,100.06L114.15,80.52L115.29,114.34L117.76,123.92L120.84,87.65L122.18,77.41L123.23,46.52L124.32,54.97L124.95,50.75L125.53,49.16L126.08,55.91L126.73,65.53L127.54,49.3L128.53,16.83L128.79,32.99L129.17,42.77L129.65,86.8L130.97,74.18L131.95,85.7L133.23,63.69L134.01,75.28L135.73,52.48L136.33,88.56L137.7,107.37L139.8,38.5L140.24,81.34L141.4,63.1L142.16,59.84L142.87,75.57L143.88,78.43L144.97,75.16L145.98,50.23L146.54,58.11L147.23,36.2L147.64,41.9L148.11,38.93L148.55,36.29L148.96,61.96L150.18,33.67L150.57,41.09L151.03,44.68L151.53,43.31L152.02,59.09L153.65,87.34L155,55.21L156.15,33.86L156.54,49.3L157.09,26.34L157.42,36.2L157.84,63.44L158.6,74.75L159.6,40.93L160.06,67.49L160.91,59.68L161.61,108.98L163.8,39.44L165.31,133.01L169.1,118.35L171.81,103.64L173.74,99.93L177.09,48.34L177.64,101.08L179.46,41.58L179.93,62.75L180.69,58.5L181.37,104.04L184.55,32.89L184.93,36.01L185.34,38.07L185.77,40.44L186.23,81.59L187.39,104.48L189.36,43.54L189.85,42.77L190.33,62.9L191.09,64.41L191.88,85.53L193.16,103.83L195.1,116L198.58,33.67L198.97,103.21L201.92,58.11L202.6,29.1L202.95,23.88L203.26,33.28L203.65,70.53L204.55,75.94L206.37,57.28L207.04,81.98L208.22,43.7L208.71,52.6L210.17,87.59L211.51,82.64L212.71,125.63L215.9,87.03L217.22,75.98L218.25,87.17L219.58,63.64L220.35,79.72L221.47,34.62L221.86,96L223.49,29.95L223.84,38.41L224.28,74.71L225.27,62.46L226.03,34.62L226.42,51.21L227.01,23.88L227.32,32.89L227.7,26.34L228.03,25.19L228.35,35.65L228.76,31.9L229.13,29.95L229.49,67.44L230.33,52.67L230.94,30.78L231.3,68.45L232.87,57.78L233.54,39.61L233.99,31.19L234.36,50.69L234.93,47.79L235.47,34.62L235.87,43L236.35,30.88L236.71,39.69L237.16,39.61L237.61,24.6L238.3,53.16L238.9,83.67L240.13,36.56L240.54,41.9L241.01,34.9L241.91,69.82L242.8,41.26L243.27,46.73L243.79,81.3L244.95,48.62L245.5,51.97L246.09,52.1L246.69,41.34L247.15,81.01L248.3,96.73L249.95,36.65L250.37,47.79L250.9,37.72L251.33,44.15L251.83,27.91L252.17,40.27L252.62,30.68L252.98,29.95L253.34,31.9L253.72,27.58L254.8,33.77L255.19,27.8L255.53,60.36L256.24,55.5L257.56,25.88L257.89,63.05L259.19,28.99L259.54,36.29L259.96,48.21L260.5,36.92L260.92,37.63L261.35,60.83L262.07,56.71L262.73,45.94L263.25,58.77L263.94,47.01L264.47,43.24L264.95,96.8L266.6,34.34L267,41.26L267.46,80.36L268.6,59.57L269.3,83.48L270.52,78.43L271.6,32.6L272.46,58.28L273.14,34.62L273.54,92.84L275.05,36.01L275.46,35.65L275.86,71.64L276.79,92.39L278.29,44.68L278.79,43.77L279.28,37.01L279.7,59.63L280.4,53.9L281.86,73.42L282.83,77.06L283.88,82.39L285.07,107.55L287.18,68.41L288.05,78.26L289.13,80.72L290.27,104.1L292.22,77.63L293.29,127.34L296.61,43.31L297.1,53.9L297.72,69.78L298.61,112.49L300.97,115.5L303.51,65.26L305.12,25.42L305.45,24.36L305.76,84.18L307,63.69L307.77,75.83L308.8,64.07L309.58,61.14L310.31,126.27L314.06,44.15L314.55,52.04L315.15,125.19L318.31,94.5L319.88,80.19L321.01,93.89L323.76,34.34L324.16,50.49L324.73,101.3L326.56,41.42L327.03,40.6L327.48,49.9L328.05,65.07L328.85,47.16L329.38,71.56L330.3,73.61L331.28,59.31L331.98,88.56L333.34,28.24L333.69,47.44L334.57,22.41L334.87,28.99L335.22,39.44L335.66,24.95L335.98,35.28L336.39,28.24L336.73,25.88L337.06,28.67L337.41,91.09L340.4,24.72L340.72,33.28L341.43,23.03L341.74,75.9L343.92,21.53L344.22,36.74L344.63,38.93L345.07,29.95L345.92,48.34L346.47,38.41L346.9,84.34L348.14,43L348.63,31.29L349,34.15L349.39,57.56L350.06,51.91L350.65,96L352.88,47.65L353.41,74.11L354.39,84.93L355.65,55.56L356.3,43.93L356.79,62.16L358.04,32.1L358.41,40.93L358.87,30.47L359.23,74.98L360.24,39.52L360.68,28.35L361.03,30.37L361.39,39.52L362.4,60L363.12,54.97L363.75,46.23L364.27,61.04L365,45.28L365.51,53.96L366.13,43.24L366.61,51.91L367.2,58.55" style="vector-effect: none; fill: none; stroke: rgb(77, 187, 213); stroke-opacity: 1; stroke-width: 1.5px; opacity: 1;"/></g><g class="points"/><g class="text"/></g></g></g></g><g class="zerolinelayer-above"/><path class="xlines-above crisp" d="M63,287.32500000000005H431.2" style="fill: none; stroke-width: 1px; stroke: rgb(0, 0, 0); stroke-opacity: 1;"/><path class="ylines-above crisp" d="M63.5,62V286.82500000000005" style="fill: none; stroke-width: 1px; stroke: rgb(0, 0, 0); stroke-opacity: 1;"/><g class="overlines-above"/><g class="xaxislayer-above"><path class="xtick ticks crisp" d="M0,287.82500000000005v4" transform="translate(148.67000000000002,0)" style="stroke: rgb(0, 0, 0); stroke-opacity: 1; stroke-width: 1px;"/><path class="xtick ticks crisp" d="M0,287.82500000000005v4" transform="translate(234.52,0)" style="stroke: rgb(0, 0, 0); stroke-opacity: 1; stroke-width: 1px;"/><path class="xtick ticks crisp" d="M0,287.82500000000005v4" transform="translate(320.37,0)" style="stroke: rgb(0, 0, 0); stroke-opacity: 1; stroke-width: 1px;"/><path class="xtick ticks crisp" d="M0,287.82500000000005v4" transform="translate(406.22,0)" style="stroke: rgb(0, 0, 0); stroke-opacity: 1; stroke-width: 1px;"/><g class="xtick"><text text-anchor="middle" x="0" y="306.225" transform="translate(148.67000000000002,0)" style="font-family: Arial; font-size: 12px; fill: rgb(42, 63, 95); fill-opacity: 1; white-space: pre;">100</text></g><g class="xtick"><text text-anchor="middle" x="0" y="306.225" style="font-family: Arial; font-size: 12px; fill: rgb(42, 63, 95); fill-opacity: 1; white-space: pre;" transform="translate(234.52,0)">200</text></g><g class="xtick"><text text-anchor="middle" x="0" y="306.225" style="font-family: Arial; font-size: 12px; fill: rgb(42, 63, 95); fill-opacity: 1; white-space: pre;" transform="translate(320.37,0)">300</text></g><g class="xtick"><text text-anchor="middle" x="0" y="306.225" style="font-family: Arial; font-size: 12px; fill: rgb(42, 63, 95); fill-opacity: 1; white-space: pre;" transform="translate(406.22,0)">400</text></g></g><g class="yaxislayer-above"><path class="ytick ticks crisp" d="M63,0h-4" transform="translate(0,261.01)" style="stroke: rgb(0, 0, 0); stroke-opacity: 1; stroke-width: 1px;"/><path class="ytick ticks crisp" d="M63,0h-4" transform="translate(0,230.75)" style="stroke: rgb(0, 0, 0); stroke-opacity: 1; stroke-width: 1px;"/><path class="ytick ticks crisp" d="M63,0h-4" transform="translate(0,200.49)" style="stroke: rgb(0, 0, 0); stroke-opacity: 1; stroke-width: 1px;"/><path class="ytick ticks crisp" d="M63,0h-4" transform="translate(0,160.49)" style="stroke: rgb(0, 0, 0); stroke-opacity: 1; stroke-width: 1px;"/><path class="ytick ticks crisp" d="M63,0h-4" transform="translate(0,130.24)" style="stroke: rgb(0, 0, 0); stroke-opacity: 1; stroke-width: 1px;"/><path class="ytick ticks crisp" d="M63,0h-4" transform="translate(0,99.97999999999999)" style="stroke: rgb(0, 0, 0); stroke-opacity: 1; stroke-width: 1px;"/><g class="ytick"><text text-anchor="end" x="56.6" y="3.15" transform="translate(0,261.01)" style="font-family: Arial; font-size: 9px; fill: rgb(42, 63, 95); fill-opacity: 1; white-space: pre;">5</text></g><g class="ytick"><text text-anchor="end" x="56.6" y="4.199999999999999" style="font-family: Arial; font-size: 12px; fill: rgb(42, 63, 95); fill-opacity: 1; white-space: pre;" transform="translate(0,230.75)">10</text></g><g class="ytick"><text text-anchor="end" x="56.6" y="3.15" style="font-family: Arial; font-size: 9px; fill: rgb(42, 63, 95); fill-opacity: 1; white-space: pre;" transform="translate(0,200.49)">2</text></g><g class="ytick"><text text-anchor="end" x="56.6" y="3.15" style="font-family: Arial; font-size: 9px; fill: rgb(42, 63, 95); fill-opacity: 1; white-space: pre;" transform="translate(0,160.49)">5</text></g><g class="ytick"><text text-anchor="end" x="56.6" y="4.199999999999999" style="font-family: Arial; font-size: 12px; fill: rgb(42, 63, 95); fill-opacity: 1; white-space: pre;" transform="translate(0,130.24)">100</text></g><g class="ytick"><text text-anchor="end" x="56.6" y="3.15" style="font-family: Arial; font-size: 9px; fill: rgb(42, 63, 95); fill-opacity: 1; white-space: pre;" transform="translate(0,99.97999999999999)">2</text></g></g><g class="overaxes-above"/></g><g class="subplot x2y2"><g class="layer-subplot"><g class="shapelayer"/><g class="imagelayer"/></g><g class="minor-gridlayer"><g class="x2"/><g class="y2"/></g><g class="gridlayer"><g class="x2"/><g class="y2"/></g><g class="zerolinelayer"><path class="y2zl zl crisp" transform="translate(0,277.57)" d="M512.8,0h367.2" style="stroke: rgb(255, 255, 255); stroke-opacity: 1; stroke-width: 2px;"/></g><g class="layer-between"><g class="shapelayer"/><g class="imagelayer"/></g><path class="xlines-below"/><path class="ylines-below"/><g class="overlines-below"/><g class="xaxislayer-below"/><g class="yaxislayer-below"/><g class="overaxes-below"/><g class="overplot"><g class="x2y2" transform="translate(512.8,62)" clip-path="url(#clip60ef19x2y2plot)"><g class="scatterlayer mlayer"><g class="trace scatter trace39c356" style="stroke-miterlimit: 2; opacity: 1;"><g class="fills"/><g class="errorbars"/><g class="lines"><path class="js-line" d="M5.47,66.01L23.02,134.1L32.58,178.63L36.92,134.15L46.48,193.86L51.2,199.72L53.06,199.99L56.66,200.91L58.38,199.59L60.26,200.32L62.05,199.24L63.96,199.76L65.82,188.21L69.03,192.25L71.77,185.96L75.24,182.8L79.09,183.17L82.89,11.24L106.87,70.93L123.84,55.56L142.62,44.1L162.74,20.23L185.66,102.63L198.92,128.97L209.08,109.63L221.51,161.97L227.8,175.96L232.45,180.56L236.56,154.57L243.72,162.43L249.95,180.52L254.07,173.37L259.02,173.01L264.02,158.14L270.76,145.14L290.7,73.95L307.32,80.98L323.12,141.8L331.77,172.05L336.88,173.37L341.83,172.13L346.93,146.61L355.02,167.29" style="vector-effect: none; fill: none; stroke: rgb(230, 75, 53); stroke-opacity: 1; stroke-width: 1.5px; opacity: 1;"/></g><g class="points"/><g class="text"/></g><g class="trace scatter traceb39e0c" style="stroke-miterlimit: 2; opacity: 1;"><g class="fills"/><g class="errorbars"/><g class="lines"><path class="js-line" d="M0,211.05L0.53,213.58L1.02,213.17L1.3,213.03L1.6,210.43L2.2,211.18L2.72,212.31L3.1,210.18L3.74,211.04L4.57,213.45L4.82,212.96L5.13,212.99L6.32,213L6.62,211.91L7.05,205.77L8.2,206.95L9.21,197.39L11.62,200.38L13.4,209.56L14.11,196.31L17.31,212.5L17.67,213.11L18.71,210.44L19.32,203.74L21.43,212.94L21.74,204.39L23.06,211.72L23.51,198.2L25.55,209.22L26.3,208.77L27.09,199.74L29.01,201.95L31.4,211.72L31.85,209.81L32.52,213.01L32.83,206.76L33.86,207.03L34.86,213.34L35.44,212.29L35.83,213.01L36.13,213.02L36.43,212.18L36.83,213.16L37.11,213.4L37.37,212.4L37.74,202.69L39.25,207.5L40.2,182.98L44.3,209.97L44.95,206.88L46.46,212.68L46.8,212.47L47.16,212.81L47.81,213.05L48.11,211.67L49.77,213.5L50.02,212.87L50.33,212.62L50.68,213.35L51.83,213.06L52.12,213.45L53.41,213.07L53.7,213.47L55.58,213.23L55.86,213.5L60.25,213.33L60.51,213.52L63.04,213.24L63.31,212.53L64.03,213.04L64.33,213.34L66.1,213.29L66.37,212.93L66.98,213.21L67.26,205.72L69.59,212.89L69.91,212.23L70.3,212.66L70.64,212.67L70.98,211.5L71.46,212.49L71.82,209.48L72.92,212.61L73.26,212.11L74.19,211.04L74.72,211.62L75.18,202.33L76.74,211.85L77.97,212.73L78.3,212.55L79.29,212.73L79.63,207.14L81.28,212.69L81.62,212.51L81.98,212.35L83.88,212.64L84.22,213.2L85.75,206.45L86.82,203.37L88.25,205.62L89.42,195.37L91.79,179.89L95.98,196.15L99.07,211.26L99.58,211.45L100.06,210.83L100.62,197.64L102.73,207.85L103.63,207.72L104.55,210.01L105.21,208.34L106.45,212.43L106.82,208.63L109.16,195.86L111.48,207.96L112.37,200.4L114.15,205.87L115.29,194.54L117.76,189.37L120.84,204.16L122.18,206.55L123.23,211.12L123.76,210.8L124.32,210.17L125.53,210.84L126.08,210.06L126.73,208.69L127.54,210.83L128.53,213.32L128.79,212.31L129.17,211.49L129.65,204.38L130.97,207.19L131.95,204.66L133.23,208.98L134.01,206.97L135.02,209.51L135.73,210.47L136.33,203.91L137.7,197.64L139.8,211.87L140.24,205.69L141.4,209.07L142.16,209.53L142.87,206.92L143.88,206.33L144.97,207L145.98,210.73L146.54,209.77L147.23,212.06L147.64,211.57L148.11,211.83L148.55,212.05L148.96,209.23L150.18,212.25L150.57,211.65L151.53,211.44L152.02,209.64L153.65,204.24L155,210.14L156.15,212.24L156.54,210.83L157.09,212.76L157.42,212.06L157.84,209.02L158.6,207.07L159.6,211.65L160.06,208.38L160.91,209.56L161.61,196.96L163.8,211.79L164.24,206.47L165.31,183.31L171.81,199.12L173.74,200.45L177.09,210.93L177.64,200.05L179.46,211.6L179.93,209.12L180.69,209.72L181.37,198.95L184.55,212.32L184.93,212.08L185.77,211.7L186.23,205.64L187.39,198.79L189.36,211.42L189.85,211.49L190.33,209.1L191.09,208.87L191.88,204.72L195.1,193.72L197.66,211.7L198.58,212.26L198.97,199.28L202.95,212.92L203.26,212.29L203.65,207.87L204.55,206.84L206.37,209.88L207.04,205.55L208.22,211.4L208.71,210.46L209.31,208.22L210.17,204.17L211.51,205.39L212.71,188.34L215.9,204.32L217.22,206.83L218.25,204.29L219.58,208.99L220.35,206.06L221.47,212.18L221.86,201.75L223.49,212.53L223.84,211.88L224.28,207.15L226.03,212.19L226.42,210.62L227.7,212.77L228.03,212.84L228.35,212.1L228.76,212.39L229.13,212.53L229.49,208.38L230.33,210.45L230.94,212.46L231.3,208.22L233.99,212.44L234.36,210.68L234.93,210.99L235.47,212.19L235.87,211.46L236.35,212.46L237.16,211.77L237.61,212.87L237.92,212.4L238.3,210.39L238.9,205.15L240.13,212.03L241.41,211.34L241.91,207.99L242.8,211.62L243.27,211.1L243.79,205.71L244.95,210.9L245.5,210.53L246.09,210.52L246.69,211.63L247.15,205.8L248.3,201.52L249.95,212.02L250.37,210.99L250.9,211.93L251.33,211.36L251.83,212.66L252.17,211.72L252.62,212.48L252.98,212.52L254.8,212.25L255.19,212.67L255.53,209.46L256.24,210.11L257.56,212.8L257.89,209.08L259.19,212.59L259.54,212.05L259.96,210.95L260.92,211.94L261.35,209.39L262.73,211.18L263.25,209.68L264.47,211.44L264.95,201.49L266.6,212.21L267,211.63L267.46,205.92L268.6,209.57L269.3,205.25L270.52,206.33L271.6,212.34L272.46,209.76L273.14,212.19L273.54,202.73L275.05,212.07L275.46,212.11L275.86,207.66L276.79,202.85L278.29,211.31L279.28,212L279.7,209.57L280.4,210.3L281.02,208.41L283.88,205.45L285.07,197.57L287.18,208.22L288.05,206.37L289.13,205.83L290.27,198.93L292.22,206.5L293.29,187.24L296.61,211.44L297.1,210.3L297.72,208L298.61,195.5L300.97,193.97L304.31,212.17L304.71,212.05L305.12,212.83L305.45,212.89L305.76,205.04L307,208.98L307.77,206.86L309.58,209.35L310.31,187.93L314.06,211.36L314.55,210.53L315.15,188.6L318.31,202.22L319.88,205.95L321.01,202.4L323.76,212.21L324.16,210.7L324.73,199.97L326.56,211.62L327.03,211.69L327.48,210.77L328.05,208.77L328.85,211.06L329.38,207.68L330.3,207.3L331.28,209.6L331.98,203.91L333.34,212.64L333.69,211.03L334.22,212.61L334.57,213.01L334.87,212.6L335.22,211.79L335.66,212.85L335.98,212.13L336.39,212.64L337.06,212.61L337.41,203.28L340.01,212.19L340.4,212.87L340.72,212.29L341.11,212.81L341.43,212.97L341.74,206.85L342.76,211.72L343.92,213.06L344.22,212.01L344.63,211.83L345.07,212.53L345.92,210.93L346.47,211.87L346.9,205L348.14,211.46L348.63,212.43L349,212.22L349.39,209.84L350.06,210.54L350.65,201.78L352.88,211.01L353.41,207.2L354.39,204.85L355.65,210.1L356.3,211.38L356.79,209.2L358.04,212.37L358.41,211.66L358.87,212.49L359.23,207.04L360.24,211.78L361.03,212.5L361.39,211.78L362.4,209.52L363.12,210.17L363.75,211.15L364.27,209.37L365,211.25L365.51,210.3L366.13,211.45L366.61,210.54L367.2,209.71" style="vector-effect: none; fill: none; stroke: rgb(77, 187, 213); stroke-opacity: 1; stroke-width: 1.5px; opacity: 1;"/></g><g class="points"/><g class="text"/></g></g></g></g><g class="zerolinelayer-above"/><path class="xlines-above crisp" d="M511.79999999999995,287.32500000000005H880" style="fill: none; stroke-width: 1px; stroke: rgb(0, 0, 0); stroke-opacity: 1;"/><path class="ylines-above crisp" d="M512.3,62V286.82500000000005" style="fill: none; stroke-width: 1px; stroke: rgb(0, 0, 0); stroke-opacity: 1;"/><g class="overlines-above"/><g class="xaxislayer-above"><path class="x2tick ticks crisp" d="M0,287.82500000000005v4" transform="translate(597.4699999999999,0)" style="stroke: rgb(0, 0, 0); stroke-opacity: 1; stroke-width: 1px;"/><path class="x2tick ticks crisp" d="M0,287.82500000000005v4" transform="translate(683.3199999999999,0)" style="stroke: rgb(0, 0, 0); stroke-opacity: 1; stroke-width: 1px;"/><path class="x2tick ticks crisp" d="M0,287.82500000000005v4" transform="translate(769.17,0)" style="stroke: rgb(0, 0, 0); stroke-opacity: 1; stroke-width: 1px;"/><path class="x2tick ticks crisp" d="M0,287.82500000000005v4" transform="translate(855.02,0)" style="stroke: rgb(0, 0, 0); stroke-opacity: 1; stroke-width: 1px;"/><g class="x2tick"><text text-anchor="middle" x="0" y="306.225" transform="translate(597.4699999999999,0)" style="font-family: Arial; font-size: 12px; fill: rgb(42, 63, 95); fill-opacity: 1; white-space: pre;">100</text></g><g class="x2tick"><text text-anchor="middle" x="0" y="306.225" style="font-family: Arial; font-size: 12px; fill: rgb(42, 63, 95); fill-opacity: 1; white-space: pre;" transform="translate(683.3199999999999,0)">200</text></g><g class="x2tick"><text text-anchor="middle" x="0" y="306.225" style="font-family: Arial; font-size: 12px; fill: rgb(42, 63, 95); fill-opacity: 1; white-space: pre;" transform="translate(769.17,0)">300</text></g><g class="x2tick"><text text-anchor="middle" x="0" y="306.225" style="font-family: Arial; font-size: 12px; fill: rgb(42, 63, 95); fill-opacity: 1; white-space: pre;" transform="translate(855.02,0)">400</text></g></g><g class="yaxislayer-above"><path class="y2tick ticks crisp" d="M511.79999999999995,0h-4" transform="translate(0,277.57)" style="stroke: rgb(0, 0, 0); stroke-opacity: 1; stroke-width: 1px;"/><path class="y2tick ticks crisp" d="M511.79999999999995,0h-4" transform="translate(0,240.99)" style="stroke: rgb(0, 0, 0); stroke-opacity: 1; stroke-width: 1px;"/><path class="y2tick ticks crisp" d="M511.79999999999995,0h-4" transform="translate(0,204.41)" style="stroke: rgb(0, 0, 0); stroke-opacity: 1; stroke-width: 1px;"/><path class="y2tick ticks crisp" d="M511.79999999999995,0h-4" transform="translate(0,167.82999999999998)" style="stroke: rgb(0, 0, 0); stroke-opacity: 1; stroke-width: 1px;"/><path class="y2tick ticks crisp" d="M511.79999999999995,0h-4" transform="translate(0,131.24)" style="stroke: rgb(0, 0, 0); stroke-opacity: 1; stroke-width: 1px;"/><path class="y2tick ticks crisp" d="M511.79999999999995,0h-4" transform="translate(0,94.66)" style="stroke: rgb(0, 0, 0); stroke-opacity: 1; stroke-width: 1px;"/><g class="y2tick"><text text-anchor="end" x="505.4" y="4.199999999999999" transform="translate(0,277.57)" style="font-family: Arial; font-size: 12px; fill: rgb(42, 63, 95); fill-opacity: 1; white-space: pre;">0</text></g><g class="y2tick"><text text-anchor="end" x="505.4" y="4.199999999999999" style="font-family: Arial; font-size: 12px; fill: rgb(42, 63, 95); fill-opacity: 1; white-space: pre;" transform="translate(0,240.99)">50</text></g><g class="y2tick"><text text-anchor="end" x="505.4" y="4.199999999999999" style="font-family: Arial; font-size: 12px; fill: rgb(42, 63, 95); fill-opacity: 1; white-space: pre;" transform="translate(0,204.41)">100</text></g><g class="y2tick"><text text-anchor="end" x="505.4" y="4.199999999999999" style="font-family: Arial; font-size: 12px; fill: rgb(42, 63, 95); fill-opacity: 1; white-space: pre;" transform="translate(0,167.82999999999998)">150</text></g><g class="y2tick"><text text-anchor="end" x="505.4" y="4.199999999999999" style="font-family: Arial; font-size: 12px; fill: rgb(42, 63, 95); fill-opacity: 1; white-space: pre;" transform="translate(0,131.24)">200</text></g><g class="y2tick"><text text-anchor="end" x="505.4" y="4.199999999999999" style="font-family: Arial; font-size: 12px; fill: rgb(42, 63, 95); fill-opacity: 1; white-space: pre;" transform="translate(0,94.66)">250</text></g></g><g class="overaxes-above"/></g><g class="subplot x3y3"><g class="layer-subplot"><g class="shapelayer"/><g class="imagelayer"/></g><g class="minor-gridlayer"><g class="x3"/><g class="y3"/></g><g class="gridlayer"><g class="x3"/><g class="y3"/></g><g class="zerolinelayer"><path class="y3zl zl crisp" transform="translate(0,580.615)" d="M64,0h367.2" style="stroke: rgb(255, 255, 255); stroke-opacity: 1; stroke-width: 2px;"/></g><g class="layer-between"><g class="shapelayer"/><g class="imagelayer"/></g><path class="xlines-below"/><path class="ylines-below"/><g class="overlines-below"/><g class="xaxislayer-below"/><g class="yaxislayer-below"/><g class="overaxes-below"/><g class="overplot"><g class="x3y3" transform="translate(64,366.17499999999995)" clip-path="url(#clip60ef19x3y3plot)"><g class="scatterlayer mlayer"><g class="trace scatter trace158e8e" style="stroke-miterlimit: 2; opacity: 1;"><g class="fills"/><g class="errorbars"/><g class="lines"><path class="js-line" d="M5.47,68.19L32.58,189.44L36.92,136.88L46.48,203.52L49.02,205.01L51.2,208.26L53.06,208.66L56.66,208.55L58.38,207.51L60.26,208.88L62.05,207.73L63.96,207.92L65.82,198.48L69.03,204.05L71.77,200.4L75.24,197.22L79.09,189.98L82.89,11.24L106.87,74.48L123.84,40.87L142.62,55.09L162.74,47.46L185.66,111.25L198.92,156.99L209.08,133L221.51,180.43L227.8,186.43L232.45,193.14L236.56,168.51L243.72,166.51L249.95,192.72L254.07,186.96L259.02,189.39L264.02,179.58L270.76,161.18L279.02,145.96L290.7,102.86L307.32,92.15L323.12,164.67L331.77,175.49L336.88,187.56L341.83,190.48L346.93,168.25L355.02,188.27" style="vector-effect: none; fill: none; stroke: rgb(230, 75, 53); stroke-opacity: 1; stroke-width: 1.5px; opacity: 1;"/></g><g class="points"/><g class="text"/></g><g class="trace scatter trace6a087d" style="stroke-miterlimit: 2; opacity: 1;"><g class="fills"/><g class="errorbars"/><g class="lines"><path class="js-line" d="M0,211.29L0.53,213.58L1.02,213.05L1.3,212.99L1.6,210.41L2.2,211.66L2.72,212.36L3.74,211.37L4.27,213.05L4.57,213.55L5.13,213.11L5.43,212.98L6.32,213.3L6.62,212.46L7.05,204.65L8.2,205.68L9.21,197.29L11.62,201.77L13.4,210.78L14.11,193.9L17.31,212.4L17.67,213.29L18.71,210.93L19.32,206.83L21.43,213L21.74,206.32L23.06,211.93L23.51,194.26L25.55,209.44L26.3,208.47L27.09,194.94L29.01,200.61L31.4,212.19L31.85,209.95L32.52,212.88L32.83,208.45L33.86,207.57L34.86,213.15L35.44,212.38L35.83,213.02L36.13,213.1L36.43,212.11L36.83,213.21L37.11,213.3L37.37,211.96L37.74,198.94L39.25,205.82L40.2,161.43L44.3,210.13L44.95,206.7L46.46,212.95L46.8,212.54L47.16,212.92L47.81,213.1L48.11,211.75L49.22,213.35L49.49,213.18L49.77,213.37L50.33,212.71L50.68,213.3L53.41,213.25L53.7,213.36L64.85,213.42L65.1,213.43L66.98,213.24L67.26,206.96L68.42,209.03L69.15,212.44L70.3,213.01L70.64,213.01L70.98,212.21L71.46,212.73L71.82,209.85L72.92,212.71L73.26,212.49L73.67,211.9L74.72,212.26L75.18,205.25L77.17,212.73L77.54,212.43L78.66,213.07L78.97,213.05L79.29,213.01L79.63,208.43L81.62,212.77L81.98,212.56L82.73,213.14L83.08,212.58L83.49,212.71L84.22,213.5L84.5,210.88L85.02,210.46L85.75,207.06L86.82,207.25L88.25,208.78L89.42,198.29L91.79,185.97L99.58,212.34L100.06,210.94L100.62,193.6L102.73,209.8L103.63,209.45L104.55,210.47L105.21,208.62L106.06,212.96L106.45,213L106.82,209.86L107.63,204.45L109.16,202.69L111.48,209.83L112.37,200.09L114.15,207.04L115.29,197.74L117.76,189.49L120.84,206.51L122.18,207.75L123.23,211.87L124.32,210.89L124.95,211.66L125.53,211.99L126.08,211.27L126.73,208.24L127.54,210.9L128.53,213.42L128.79,212.21L129.17,211.92L129.65,205.3L130.97,209.05L131.95,207.64L133.23,210.92L134.01,208.92L135.73,210.26L136.33,206.95L137.7,197.61L139.8,212.43L140.24,207.64L141.4,211.17L142.16,210.52L142.87,208.59L143.88,203.98L144.97,207.5L146.54,211.41L147.23,212.53L148.55,211.87L148.96,210.99L150.18,212.97L150.57,212.59L151.03,212.37L152.72,209.52L153.65,207.72L156.15,212.84L156.54,211.09L157.09,213.21L157.42,212L157.84,209.91L158.6,206.93L159.6,212.19L160.06,209.24L160.91,210.39L161.61,197.39L163.8,212.32L165.31,189.44L169.1,194.98L171.81,199.39L173.74,205.57L175.51,205.3L176.45,210.58L177.09,211.87L177.64,199.98L179.46,212.14L179.93,210.33L180.69,211.18L181.37,201.34L183.32,209.73L184.55,212.82L184.93,212.63L185.34,212.66L185.77,212.26L186.23,206.64L187.39,202.14L189.36,212.17L189.85,211.84L190.33,209.38L191.88,207.51L193.16,202.45L195.1,192.99L197.66,212.13L198.58,212.88L198.97,199.29L200.88,208.88L201.92,209.67L202.95,213.06L203.26,212.63L203.65,208.24L204.55,208.51L205.58,209.7L206.37,210.98L207.04,206.93L208.22,212.5L208.71,211.61L209.31,209.33L211.51,205.32L212.71,191.31L217.22,208.33L218.25,204.14L219.58,210.16L220.35,207.49L221.47,212.58L221.86,198.76L223.49,212.86L223.84,211.67L224.28,206.97L226.03,212.46L226.42,210.98L227.7,213.13L228.03,213.2L228.76,212.58L229.13,213.09L229.49,205.54L230.33,211.02L230.94,212.73L231.3,207.04L233.99,212.72L234.36,211.19L234.93,211.47L235.47,212.66L235.87,212.1L236.35,212.85L237.16,212.1L237.61,213.09L237.92,212.91L238.3,209.96L238.9,204.32L240.13,212.78L240.54,211.85L241.01,212.6L241.41,212.17L241.91,209.55L242.8,212.43L243.27,211.46L243.79,202.5L245.5,211.12L246.09,210.6L246.69,211.91L247.15,207.08L248.3,191.84L249.95,212.43L250.37,212.24L250.9,211.12L252.62,212.73L252.98,213.03L254.05,212.86L254.44,213.02L254.8,212.65L255.19,213.13L255.53,209.37L257.23,212.95L257.56,212.97L257.89,209.17L258.65,210.95L259.19,212.89L259.54,212.67L259.96,211.62L260.92,212.36L261.35,209.98L262.73,212.01L263.25,211.48L263.94,211.58L264.47,211.66L264.95,197.34L266.6,212.6L267,212.16L267.46,205.55L268.6,210.45L269.3,207.13L270.52,205.84L271.6,212.74L272.46,209.96L273.14,212.65L273.54,202.6L275.05,212.59L275.46,212.35L275.86,208.35L276.79,205.25L278.29,212.41L279.28,212.66L279.7,210.61L280.4,211.52L281.02,209.47L281.86,208.07L282.83,208.58L285.07,202.03L287.18,209.06L288.05,208.08L289.13,209.38L290.27,200.88L292.22,208.19L293.29,182.85L296.61,212.35L297.72,209.51L298.61,190.05L300.97,201.7L303.51,208.67L305.12,213.25L305.45,213.31L305.76,205.21L307,210.02L307.77,207.34L308.8,210.17L309.58,209.81L310.31,182.74L314.06,211.97L314.55,211.25L315.15,191.82L318.31,205.74L321.01,205.4L322.56,210.3L323.76,212.68L324.16,211.31L324.73,199.63L326.56,212.38L327.03,212.39L327.48,211.61L328.05,207.91L328.85,211.93L329.38,208.09L330.3,209.17L331.28,210.66L331.98,204.35L333.34,212.95L333.69,210.16L334.57,213.26L334.87,212.95L335.22,212.46L336.39,213.16L336.73,213.3L337.06,213.03L337.41,200.58L340.01,212.37L340.4,213.15L341.11,213.03L341.43,213.29L341.74,203.32L342.76,212.26L343.92,213.31L344.22,212.18L345.07,212.96L345.43,211.83L345.92,210.73L346.47,212.4L346.9,205.15L348.14,211.64L349,212.71L349.39,210.75L350.06,211.19L350.65,203.57L352.88,211.8L353.41,206.89L354.39,206.43L355.65,211.12L356.3,211.5L356.79,208.77L358.04,212.79L358.41,212.21L358.87,212.68L359.23,209.42L361.03,212.98L361.39,212.65L362.4,209.97L363.12,211.27L363.75,212.04L364.27,210.99L365,211.98L365.51,210.83L366.13,212.51L366.61,211.71L367.2,210.85" style="vector-effect: none; fill: none; stroke: rgb(77, 187, 213); stroke-opacity: 1; stroke-width: 1.5px; opacity: 1;"/></g><g class="points"/><g class="text"/></g></g></g></g><g class="zerolinelayer-above"/><path class="xlines-above crisp" d="M63,591.5H431.2" style="fill: none; stroke-width: 1px; stroke: rgb(0, 0, 0); stroke-opacity: 1;"/><path class="ylines-above crisp" d="M63.5,366.17499999999995V591" style="fill: none; stroke-width: 1px; stroke: rgb(0, 0, 0); stroke-opacity: 1;"/><g class="overlines-above"/><g class="xaxislayer-above"><path class="x3tick ticks crisp" d="M0,592v4" transform="translate(148.67000000000002,0)" style="stroke: rgb(0, 0, 0); stroke-opacity: 1; stroke-width: 1px;"/><path class="x3tick ticks crisp" d="M0,592v4" transform="translate(234.52,0)" style="stroke: rgb(0, 0, 0); stroke-opacity: 1; stroke-width: 1px;"/><path class="x3tick ticks crisp" d="M0,592v4" transform="translate(320.37,0)" style="stroke: rgb(0, 0, 0); stroke-opacity: 1; stroke-width: 1px;"/><path class="x3tick ticks crisp" d="M0,592v4" transform="translate(406.22,0)" style="stroke: rgb(0, 0, 0); stroke-opacity: 1; stroke-width: 1px;"/><g class="x3tick"><text text-anchor="middle" x="0" y="610.4" transform="translate(148.67000000000002,0)" style="font-family: Arial; font-size: 12px; fill: rgb(42, 63, 95); fill-opacity: 1; white-space: pre;">100</text></g><g class="x3tick"><text text-anchor="middle" x="0" y="610.4" style="font-family: Arial; font-size: 12px; fill: rgb(42, 63, 95); fill-opacity: 1; white-space: pre;" transform="translate(234.52,0)">200</text></g><g class="x3tick"><text text-anchor="middle" x="0" y="610.4" style="font-family: Arial; font-size: 12px; fill: rgb(42, 63, 95); fill-opacity: 1; white-space: pre;" transform="translate(320.37,0)">300</text></g><g class="x3tick"><text text-anchor="middle" x="0" y="610.4" style="font-family: Arial; font-size: 12px; fill: rgb(42, 63, 95); fill-opacity: 1; white-space: pre;" transform="translate(406.22,0)">400</text></g></g><g class="yaxislayer-above"><path class="y3tick ticks crisp" d="M63,0h-4" transform="translate(0,580.615)" style="stroke: rgb(0, 0, 0); stroke-opacity: 1; stroke-width: 1px;"/><path class="y3tick ticks crisp" d="M63,0h-4" transform="translate(0,536.055)" style="stroke: rgb(0, 0, 0); stroke-opacity: 1; stroke-width: 1px;"/><path class="y3tick ticks crisp" d="M63,0h-4" transform="translate(0,491.49499999999995)" style="stroke: rgb(0, 0, 0); stroke-opacity: 1; stroke-width: 1px;"/><path class="y3tick ticks crisp" d="M63,0h-4" transform="translate(0,446.93499999999995)" style="stroke: rgb(0, 0, 0); stroke-opacity: 1; stroke-width: 1px;"/><path class="y3tick ticks crisp" d="M63,0h-4" transform="translate(0,402.37499999999994)" style="stroke: rgb(0, 0, 0); stroke-opacity: 1; stroke-width: 1px;"/><g class="y3tick"><text text-anchor="end" x="56.6" y="4.199999999999999" transform="translate(0,580.615)" style="font-family: Arial; font-size: 12px; fill: rgb(42, 63, 95); fill-opacity: 1; white-space: pre;">0</text></g><g class="y3tick"><text text-anchor="end" x="56.6" y="4.199999999999999" style="font-family: Arial; font-size: 12px; fill: rgb(42, 63, 95); fill-opacity: 1; white-space: pre;" transform="translate(0,536.055)">200</text></g><g class="y3tick"><text text-anchor="end" x="56.6" y="4.199999999999999" style="font-family: Arial; font-size: 12px; fill: rgb(42, 63, 95); fill-opacity: 1; white-space: pre;" transform="translate(0,491.49499999999995)">400</text></g><g class="y3tick"><text text-anchor="end" x="56.6" y="4.199999999999999" style="font-family: Arial; font-size: 12px; fill: rgb(42, 63, 95); fill-opacity: 1; white-space: pre;" transform="translate(0,446.93499999999995)">600</text></g><g class="y3tick"><text text-anchor="end" x="56.6" y="4.199999999999999" style="font-family: Arial; font-size: 12px; fill: rgb(42, 63, 95); fill-opacity: 1; white-space: pre;" transform="translate(0,402.37499999999994)">800</text></g></g><g class="overaxes-above"/></g><g class="subplot x4y4"><g class="layer-subplot"><g class="shapelayer"/><g class="imagelayer"/></g><g class="minor-gridlayer"><g class="x4"/><g class="y4"/></g><g class="gridlayer"><g class="x4"/><g class="y4"/></g><g class="zerolinelayer"><path class="y4zl zl crisp" transform="translate(0,580.355)" d="M512.8,0h367.2" style="stroke: rgb(255, 255, 255); stroke-opacity: 1; stroke-width: 2px;"/></g><g class="layer-between"><g class="shapelayer"/><g class="imagelayer"/></g><path class="xlines-below"/><path class="ylines-below"/><g class="overlines-below"/><g class="xaxislayer-below"/><g class="yaxislayer-below"/><g class="overaxes-below"/><g class="overplot"><g class="x4y4" transform="translate(512.8,366.17499999999995)" clip-path="url(#clip60ef19x4y4plot)"><g class="scatterlayer mlayer"><g class="trace scatter trace455b3b" style="stroke-miterlimit: 2; opacity: 1;"><g class="fills"/><g class="errorbars"/><g class="lines"><path class="js-line" d="M5.47,81.26L23.02,138.69L32.58,186.86L36.92,28.05L46.48,204.61L49.02,206L51.2,208.36L53.06,210.02L54.89,209.84L58.38,207.8L60.26,210L62.05,207.66L63.96,209.37L65.82,183.85L69.03,204.36L71.77,203.64L75.24,194.94L79.09,187.38L82.89,11.24L106.87,91.9L123.84,61.04L142.62,86.97L162.74,18.14L185.66,139.04L198.92,135.31L209.08,146.43L221.51,151.61L227.8,181.48L232.45,197.88L236.56,177.36L243.72,158.46L249.95,194.08L254.07,186.41L259.02,192.37L264.02,156.5L270.76,162.45L279.02,159.48L290.7,108.62L307.32,108.02L323.12,174.51L331.77,180.14L336.88,168.81L341.83,195.77L346.93,169.27L355.02,156.44" style="vector-effect: none; fill: none; stroke: rgb(230, 75, 53); stroke-opacity: 1; stroke-width: 1.5px; opacity: 1;"/></g><g class="points"/><g class="text"/></g><g class="trace scatter tracecd040a" style="stroke-miterlimit: 2; opacity: 1;"><g class="fills"/><g class="errorbars"/><g class="lines"><path class="js-line" d="M0,210.55L0.53,213.58L1.02,213.1L1.3,212.33L1.6,205.03L2.2,211.52L2.72,212.68L3.1,211.97L3.74,210.67L4.57,213.57L4.82,213.31L5.13,213.2L6.03,212.73L6.32,213.26L6.62,212.26L7.05,193.76L8.2,202.92L9.21,188.48L11.62,197.61L13.4,209.81L14.11,192.61L16.37,210.03L17.67,213.3L17.96,212.9L18.34,212.45L18.71,210.53L19.32,186.43L21.43,213.01L21.74,188.46L23.06,211.86L23.51,194.08L25.55,210.47L26.3,205.67L27.09,191.63L29.01,195.48L31.4,212.23L31.85,208.5L32.52,212.94L32.83,200.31L34.86,213.13L35.13,212.69L35.44,211.94L36.13,213.08L36.43,212.3L37.11,213.33L37.37,212.36L37.74,195.25L39.25,202.68L40.2,166.18L44.3,211L44.95,202.26L45.97,211.96L47.16,213.05L47.49,212.57L47.81,213.22L48.11,211.82L49.22,213.37L49.49,213.12L49.77,213.42L50.02,212.45L50.33,212.77L50.68,213.3L52.9,213.46L53.14,213.43L54.2,213.28L54.51,213.41L58.38,213.48L58.63,213.15L59.71,213.46L59.96,213.31L61,213.24L61.26,212.65L62.28,213.5L62.53,213.43L63.67,213L64.03,213.24L66.1,213.36L66.37,212.86L66.98,213.35L67.26,203.15L69.59,213.23L69.91,212.63L70.3,212.99L70.64,213.04L70.98,210.94L71.46,212.95L71.82,206.86L72.92,212.91L73.26,212.27L73.67,211.95L74.72,212.15L75.18,189.64L77.17,212.8L77.54,212.18L78.66,213.28L78.97,213.22L79.29,212.99L79.63,204.75L81.28,213.05L81.62,212.89L82.36,212.78L82.73,213.09L83.49,211.96L83.88,213.1L84.22,213.5L84.5,210.77L85.02,208.16L85.75,208.62L86.82,206.29L88.25,206.81L89.42,197.28L91.79,145.7L95.98,191.76L98.26,208.44L99.58,212.7L100.06,211L100.62,194.53L102.73,210.97L103.63,209.22L104.55,210.76L105.21,204.87L106.06,213.04L106.45,213.16L106.82,209.33L109.16,194.6L111.48,203.9L112.37,196.61L114.15,196.25L115.29,179.29L117.76,173.27L120.84,207.78L122.18,201.43L123.23,212.17L123.76,211.84L124.32,210.98L125.53,212.15L126.08,209.48L126.73,205L127.54,210.87L128.53,213.5L128.79,210.08L129.17,212.21L129.65,206.93L130.97,208.84L131.95,200.38L133.23,211.26L134.01,209.68L135.02,209.8L135.73,208.47L136.33,207.13L137.7,166.13L139.8,212.55L140.24,208.77L141.4,211.6L142.16,211.1L142.87,207.03L143.88,203.43L144.97,203.98L145.98,210.79L146.54,207.86L147.23,212.59L147.64,212.01L148.11,212.4L148.96,211.61L149.71,212.73L151.03,212.15L151.53,211.04L152.02,207.43L152.72,210.53L153.65,206.14L155,210.92L155.64,210.03L156.15,212.79L156.54,211.35L157.09,213.02L158.6,207.26L159.6,212.41L160.06,209.46L160.91,209.46L161.61,197.15L163.8,212.64L164.24,194.87L165.31,190.82L169.1,196.31L171.81,197.59L173.74,179.18L175.51,202.27L177.09,211.72L177.64,200.73L179.46,212.34L179.93,209.1L180.69,211.52L181.37,197.62L184.55,212.85L184.93,212.7L185.34,212.36L185.77,212.55L186.23,205.23L187.39,190.86L189.36,212.11L189.85,212.26L190.33,208.3L191.09,209.86L191.88,193.79L193.16,199.02L195.1,194.79L198.12,212.51L198.58,212.44L198.97,194.81L200.88,204.2L202.95,213.19L203.26,212.6L203.65,198.43L204.55,209.02L205.58,208.64L206.37,210.98L207.04,186.13L208.22,212.65L208.71,211.67L209.31,208.23L210.17,206.95L211.51,203.08L212.71,188.71L215.9,195.81L217.22,208.83L218.25,192.49L219.58,210.53L220.35,205.76L221.47,212.24L221.86,186.14L223.49,212.38L223.84,211.96L224.28,204.81L226.03,212.26L226.42,210.27L227.7,213.13L228.03,213.12L228.35,211.92L228.76,212.86L229.13,213.14L229.49,200.95L230.33,211.52L230.94,212.92L231.3,202.04L232.16,210.45L232.87,208.88L233.99,212.6L234.36,209.16L235.87,212.44L236.35,212.94L237.16,212.29L237.61,213.17L237.92,212.9L238.3,210.14L238.9,204.02L240.13,212.57L240.54,211.96L241.01,212.72L241.41,212.34L241.91,208.39L242.8,212.54L243.27,211.85L243.79,203.09L245.5,211.58L246.09,209.92L246.69,211.8L247.15,187.08L248.3,194.73L249.95,212.53L251.33,210.84L251.83,212.89L252.17,212.25L252.62,212.78L252.98,212.92L254.05,212.71L254.44,213.1L255.19,212.93L255.53,206.75L256.24,202.1L256.88,212.92L257.56,213.08L257.89,200.68L259.19,212.84L259.54,209.24L259.96,208.81L260.5,212.58L260.92,212.33L261.35,209.82L262.73,211.94L263.25,208.59L264.47,212.28L264.95,190.61L267,212.46L267.46,206.17L268.6,210.89L269.3,202.57L270.52,204.34L271.6,212.84L272.46,210.22L273.14,212.75L273.54,193.4L275.05,212.52L275.46,212.17L275.86,204.06L276.79,202.99L278.29,211.36L279.28,212.69L279.7,210.05L280.4,209.99L281.02,204.59L281.86,199.42L282.83,204.26L283.88,205.5L285.07,196.68L287.18,209.95L288.05,206.76L289.13,209.08L290.27,196.98L292.22,209.86L293.29,186.77L296.61,211.75L297.1,211.47L297.72,207.68L298.61,191.93L300.97,184.09L304.31,212.94L304.71,211.98L305.45,213.44L305.76,207.18L307,208.86L307.77,207.98L308.8,210.65L309.58,209.32L310.31,177.9L313.55,211.69L314.06,211.73L314.55,210.96L315.15,188.66L318.31,192.5L319.88,203.91L321.01,197.95L323.25,211.45L323.76,211.97L324.16,210.58L324.73,190.32L326.56,212.54L327.03,212.43L327.48,211.63L328.05,206.14L328.85,212.31L329.38,205.09L330.3,209.44L331.28,209.28L331.98,200.61L333.34,213.13L333.69,209.92L334.22,212.99L334.57,213.24L334.87,212.7L335.22,212.61L336.73,213.28L337.06,213.24L337.41,188.4L338.86,207.08L340.4,213.24L340.72,212.63L341.43,213.3L341.74,193.16L343.21,212.7L343.62,213.35L343.92,213.34L344.22,212.23L345.43,212.46L345.92,210.46L346.47,212.36L346.9,192.49L348.63,212.84L349,212.96L349.39,209.73L350.06,211.57L350.65,192.22L352.28,211.4L352.88,212.01L353.41,203.45L354.39,193.7L355.65,211.72L356.3,211.43L356.79,208.08L358.04,212.74L358.41,212.04L358.87,212.94L359.23,188.47L361.03,213.2L361.39,212.89L362.4,211.04L363.12,211.79L363.75,212.15L364.27,209.12L365,212.01L365.51,210.41L366.13,211.92L366.61,211.52L367.2,210.8" style="vector-effect: none; fill: none; stroke: rgb(77, 187, 213); stroke-opacity: 1; stroke-width: 1.5px; opacity: 1;"/></g><g class="points"/><g class="text"/></g></g></g></g><g class="zerolinelayer-above"/><path class="xlines-above crisp" d="M511.79999999999995,591.5H880" style="fill: none; stroke-width: 1px; stroke: rgb(0, 0, 0); stroke-opacity: 1;"/><path class="ylines-above crisp" d="M512.3,366.17499999999995V591" style="fill: none; stroke-width: 1px; stroke: rgb(0, 0, 0); stroke-opacity: 1;"/><g class="overlines-above"/><g class="xaxislayer-above"><path class="x4tick ticks crisp" d="M0,592v4" transform="translate(597.4699999999999,0)" style="stroke: rgb(0, 0, 0); stroke-opacity: 1; stroke-width: 1px;"/><path class="x4tick ticks crisp" d="M0,592v4" transform="translate(683.3199999999999,0)" style="stroke: rgb(0, 0, 0); stroke-opacity: 1; stroke-width: 1px;"/><path class="x4tick ticks crisp" d="M0,592v4" transform="translate(769.17,0)" style="stroke: rgb(0, 0, 0); stroke-opacity: 1; stroke-width: 1px;"/><path class="x4tick ticks crisp" d="M0,592v4" transform="translate(855.02,0)" style="stroke: rgb(0, 0, 0); stroke-opacity: 1; stroke-width: 1px;"/><g class="x4tick"><text text-anchor="middle" x="0" y="610.4" transform="translate(597.4699999999999,0)" style="font-family: Arial; font-size: 12px; fill: rgb(42, 63, 95); fill-opacity: 1; white-space: pre;">100</text></g><g class="x4tick"><text text-anchor="middle" x="0" y="610.4" style="font-family: Arial; font-size: 12px; fill: rgb(42, 63, 95); fill-opacity: 1; white-space: pre;" transform="translate(683.3199999999999,0)">200</text></g><g class="x4tick"><text text-anchor="middle" x="0" y="610.4" style="font-family: Arial; font-size: 12px; fill: rgb(42, 63, 95); fill-opacity: 1; white-space: pre;" transform="translate(769.17,0)">300</text></g><g class="x4tick"><text text-anchor="middle" x="0" y="610.4" style="font-family: Arial; font-size: 12px; fill: rgb(42, 63, 95); fill-opacity: 1; white-space: pre;" transform="translate(855.02,0)">400</text></g></g><g class="yaxislayer-above"><path class="y4tick ticks crisp" d="M511.79999999999995,0h-4" transform="translate(0,580.355)" style="stroke: rgb(0, 0, 0); stroke-opacity: 1; stroke-width: 1px;"/><path class="y4tick ticks crisp" d="M511.79999999999995,0h-4" transform="translate(0,510.525)" style="stroke: rgb(0, 0, 0); stroke-opacity: 1; stroke-width: 1px;"/><path class="y4tick ticks crisp" d="M511.79999999999995,0h-4" transform="translate(0,440.68499999999995)" style="stroke: rgb(0, 0, 0); stroke-opacity: 1; stroke-width: 1px;"/><path class="y4tick ticks crisp" d="M511.79999999999995,0h-4" transform="translate(0,370.85499999999996)" style="stroke: rgb(0, 0, 0); stroke-opacity: 1; stroke-width: 1px;"/><g class="y4tick"><text text-anchor="end" x="505.4" y="4.199999999999999" transform="translate(0,580.355)" style="font-family: Arial; font-size: 12px; fill: rgb(42, 63, 95); fill-opacity: 1; white-space: pre;">0</text></g><g class="y4tick"><text text-anchor="end" x="505.4" y="4.199999999999999" style="font-family: Arial; font-size: 12px; fill: rgb(42, 63, 95); fill-opacity: 1; white-space: pre;" transform="translate(0,510.525)">500</text></g><g class="y4tick"><text text-anchor="end" x="505.4" y="4.199999999999999" style="font-family: Arial; font-size: 12px; fill: rgb(42, 63, 95); fill-opacity: 1; white-space: pre;" transform="translate(0,440.68499999999995)">1000</text></g><g class="y4tick"><text text-anchor="end" x="505.4" y="4.199999999999999" style="font-family: Arial; font-size: 12px; fill: rgb(42, 63, 95); fill-opacity: 1; white-space: pre;" transform="translate(0,370.85499999999996)">1500</text></g></g><g class="overaxes-above"/></g></g><g class="polarlayer"/><g class="smithlayer"/><g class="ternarylayer"/><g class="geolayer"/><g class="funnelarealayer"/><g class="pielayer"/><g class="iciclelayer"/><g class="treemaplayer"/><g class="sunburstlayer"/><g class="glimages"/><defs id="topdefs-60ef19"><g class="clips"/><clipPath id="legend60ef19"><rect width="190" height="29" x="0" y="0"/></clipPath></defs><g class="layer-above"><g class="imagelayer"/><g class="shapelayer"><g class="shape-group" data-index="0" clip-path="url(#clip60ef19x)"><path data-index="0" fill-rule="evenodd" d="M114.35,286.82500000000005L114.35,62" style="opacity: 1; stroke: rgb(136, 136, 136); stroke-opacity: 1; fill: rgb(0, 0, 0); fill-opacity: 0; stroke-dasharray: 9px, 9px; stroke-width: 1px;"/></g><g class="shape-group" data-index="1" clip-path="url(#clip60ef19x2)"><path data-index="1" fill-rule="evenodd" d="M563.15,286.82500000000005L563.15,62" style="opacity: 1; stroke: rgb(136, 136, 136); stroke-opacity: 1; fill: rgb(0, 0, 0); fill-opacity: 0; stroke-dasharray: 9px, 9px; stroke-width: 1px;"/></g><g class="shape-group" data-index="2" clip-path="url(#clip60ef19x3)"><path data-index="2" fill-rule="evenodd" d="M114.35,591L114.35,366.17499999999995" style="opacity: 1; stroke: rgb(136, 136, 136); stroke-opacity: 1; fill: rgb(0, 0, 0); fill-opacity: 0; stroke-dasharray: 9px, 9px; stroke-width: 1px;"/></g><g class="shape-group" data-index="3" clip-path="url(#clip60ef19x4)"><path data-index="3" fill-rule="evenodd" d="M563.15,591L563.15,366.17499999999995" style="opacity: 1; stroke: rgb(136, 136, 136); stroke-opacity: 1; fill: rgb(0, 0, 0); fill-opacity: 0; stroke-dasharray: 9px, 9px; stroke-width: 1px;"/></g><g class="shape-group" data-index="4" clip-path="url(#clip60ef19x)"><path data-index="4" fill-rule="evenodd" d="M278.89,286.82500000000005L278.89,62" style="opacity: 1; stroke: rgb(136, 136, 136); stroke-opacity: 1; fill: rgb(0, 0, 0); fill-opacity: 0; stroke-dasharray: 9px, 9px; stroke-width: 1px;"/></g><g class="shape-group" data-index="5" clip-path="url(#clip60ef19x2)"><path data-index="5" fill-rule="evenodd" d="M727.6899999999999,286.82500000000005L727.6899999999999,62" style="opacity: 1; stroke: rgb(136, 136, 136); stroke-opacity: 1; fill: rgb(0, 0, 0); fill-opacity: 0; stroke-dasharray: 9px, 9px; stroke-width: 1px;"/></g><g class="shape-group" data-index="6" clip-path="url(#clip60ef19x3)"><path data-index="6" fill-rule="evenodd" d="M278.89,591L278.89,366.17499999999995" style="opacity: 1; stroke: rgb(136, 136, 136); stroke-opacity: 1; fill: rgb(0, 0, 0); fill-opacity: 0; stroke-dasharray: 9px, 9px; stroke-width: 1px;"/></g><g class="shape-group" data-index="7" clip-path="url(#clip60ef19x4)"><path data-index="7" fill-rule="evenodd" d="M727.6899999999999,591L727.6899999999999,366.17499999999995" style="opacity: 1; stroke: rgb(136, 136, 136); stroke-opacity: 1; fill: rgb(0, 0, 0); fill-opacity: 0; stroke-dasharray: 9px, 9px; stroke-width: 1px;"/></g></g></g><g class="infolayer"><g class="legend" pointer-events="all" transform="translate(377,11.839999999999982)"><rect class="bg" shape-rendering="crispEdges" style="stroke: rgb(68, 68, 68); stroke-opacity: 1; fill: rgb(255, 255, 255); fill-opacity: 1; stroke-width: 0px;" width="190" height="29" x="0" y="0"/><g class="scrollbox" transform="" clip-path="url(#legend60ef19)"><g class="groups" transform=""><g class="traces" transform="translate(0,14.5)" style="opacity: 1;"><text class="legendtext" text-anchor="start" x="40" y="4.29" style="font-family: Arial; font-size: 11px; fill: rgb(42, 63, 95); fill-opacity: 1; white-space: pre;">Elasticsearch</text><g class="layers" style="opacity: 1;"><g class="legendfill"/><g class="legendlines"><path class="js-line" d="M5,0h30" style="fill: none; stroke: rgb(230, 75, 53); stroke-opacity: 1; stroke-width: 1.5px;"/></g><g class="legendsymbols"><g class="legendpoints"/></g></g><rect class="legendtoggle" x="0" y="-9.5" width="107.921875" height="19" style="fill: rgb(0, 0, 0); fill-opacity: 0;"/></g></g><g class="groups" transform="translate(110.421875,0)"><g class="traces" transform="translate(0,14.5)" style="opacity: 1;"><text class="legendtext" text-anchor="start" x="40" y="4.29" style="font-family: Arial; font-size: 11px; fill: rgb(42, 63, 95); fill-opacity: 1; white-space: pre;">Qdrant</text><g class="layers" style="opacity: 1;"><g class="legendfill"/><g class="legendlines"><path class="js-line" d="M5,0h30" style="fill: none; stroke: rgb(77, 187, 213); stroke-opacity: 1; stroke-width: 1.5px;"/></g><g class="legendsymbols"><g class="legendpoints"/></g></g><rect class="legendtoggle" x="0" y="-9.5" width="76.1328125" height="19" style="fill: rgb(0, 0, 0); fill-opacity: 0;"/></g></g></g><rect class="scrollbar" rx="20" ry="3" width="0" height="0" style="fill: rgb(128, 139, 164); fill-opacity: 1;" x="0" y="0"/></g><g class="g-gtitle"/><g class="g-xtitle"/><g class="g-x2title"/><g class="g-x3title"><text class="x3title" x="247.6" y="637.200390625" text-anchor="middle" style="opacity: 1; font-family: Arial; font-size: 14px; fill: rgb(42, 63, 95); fill-opacity: 1; white-space: pre;">Time (s)</text></g><g class="g-x4title"><text class="x4title" x="696.4" y="637.200390625" text-anchor="middle" style="opacity: 1; font-family: Arial; font-size: 14px; fill: rgb(42, 63, 95); fill-opacity: 1; white-space: pre;">Time (s)</text></g><g class="g-ytitle"><text class="ytitle" transform="rotate(-90,17.176171875,174.41250000000002)" x="17.176171875" y="174.41250000000002" text-anchor="middle" style="opacity: 1; font-family: Arial; font-size: 14px; fill: rgb(42, 63, 95); fill-opacity: 1; white-space: pre;">queries s<tspan style="font-size:70%" dy="-0.6em">-1</tspan><tspan dy="0.42em"></tspan></text></g><g class="g-y2title"><text class="y2title" transform="rotate(-90,465.976953125,174.41250000000002)" x="465.976953125" y="174.41250000000002" text-anchor="middle" style="opacity: 1; font-family: Arial; font-size: 14px; fill: rgb(42, 63, 95); fill-opacity: 1; white-space: pre;">ms</text></g><g class="g-y3title"><text class="y3title" transform="rotate(-90,17.176171875,478.5875)" x="17.176171875" y="478.5875" text-anchor="middle" style="opacity: 1; font-family: Arial; font-size: 14px; fill: rgb(42, 63, 95); fill-opacity: 1; white-space: pre;">ms</text></g><g class="g-y4title"><text class="y4title" transform="rotate(-90,459.305078125,478.5875)" x="459.305078125" y="478.5875" text-anchor="middle" style="opacity: 1; font-family: Arial; font-size: 14px; fill: rgb(42, 63, 95); fill-opacity: 1; white-space: pre;">ms</text></g><g class="annotation" data-index="0" style="opacity: 1;"><g class="annotation-text-g" transform="rotate(0,237.96,52.5)"><g class="cursor-pointer" transform="translate(215,43)"><rect class="bg" x="0.5" y="0.5" width="45" height="18" style="stroke-width: 1px; stroke: rgb(0, 0, 0); stroke-opacity: 0; fill: rgb(0, 0, 0); fill-opacity: 0;"/><text class="annotation-text" text-anchor="middle" x="22.95703125" y="14" style="font-family: Arial; font-size: 13px; fill: rgb(42, 63, 95); fill-opacity: 1; white-space: pre;"><tspan style="font-weight:bold">a</tspan>  QPS</text></g></g></g><g class="annotation" data-index="1" style="opacity: 1;"><g class="annotation-text-g" transform="rotate(0,711.76,52.5)"><g class="cursor-pointer" transform="translate(664,43)"><rect class="bg" x="0.5" y="0.5" width="95" height="18" style="stroke-width: 1px; stroke: rgb(0, 0, 0); stroke-opacity: 0; fill: rgb(0, 0, 0); fill-opacity: 0;"/><text class="annotation-text" text-anchor="middle" x="48.24609375" y="14" style="font-family: Arial; font-size: 13px; fill: rgb(42, 63, 95); fill-opacity: 1; white-space: pre;"><tspan style="font-weight:bold">b</tspan>  Mean latency</text></g></g></g><g class="annotation" data-index="2" style="opacity: 1;"><g class="annotation-text-g" transform="rotate(0,257.46000000000004,356.67499999999995)"><g class="cursor-pointer" transform="translate(215,347)"><rect class="bg" x="0.5" y="0.5" width="84" height="18" style="stroke-width: 1px; stroke: rgb(0, 0, 0); stroke-opacity: 0; fill: rgb(0, 0, 0); fill-opacity: 0;"/><text class="annotation-text" text-anchor="middle" x="42.4765625" y="14" style="font-family: Arial; font-size: 13px; fill: rgb(42, 63, 95); fill-opacity: 1; white-space: pre;"><tspan style="font-weight:bold">c</tspan>  p95 latency</text></g></g></g><g class="annotation" data-index="3" style="opacity: 1;"><g class="annotation-text-g" transform="rotate(0,706.76,356.67499999999995)"><g class="cursor-pointer" transform="translate(664,347)"><rect class="bg" x="0.5" y="0.5" width="85" height="18" style="stroke-width: 1px; stroke: rgb(0, 0, 0); stroke-opacity: 0; fill: rgb(0, 0, 0); fill-opacity: 0;"/><text class="annotation-text" text-anchor="middle" x="42.83203125" y="14" style="font-family: Arial; font-size: 13px; fill: rgb(42, 63, 95); fill-opacity: 1; white-space: pre;"><tspan style="font-weight:bold">d</tspan>  p99 latency</text></g></g></g><g class="annotation" data-index="4" style="opacity: 1;"><g class="annotation-text-g" transform="rotate(-90,123.82,120.74125000000001)"><g class="cursor-pointer" transform="translate(76,111)"><rect class="bg" x="0.5" y="0.5" width="94" height="18" style="stroke-width: 1px; stroke: rgb(0, 0, 0); stroke-opacity: 0; fill: rgb(0, 0, 0); fill-opacity: 0;"/><text class="annotation-text" text-anchor="middle" x="47.51171875" y="14" style="font-family: Arial; font-size: 13px; fill: rgb(42, 63, 95); fill-opacity: 1; white-space: pre;">Heavy write ON</text></g></g></g><g class="annotation" data-index="5" style="opacity: 1;"><g class="annotation-text-g" transform="rotate(-90,288.36,124.24125000000001)"><g class="cursor-pointer" transform="translate(237,115)"><rect class="bg" x="0.5" y="0.5" width="101" height="18" style="stroke-width: 1px; stroke: rgb(0, 0, 0); stroke-opacity: 0; fill: rgb(0, 0, 0); fill-opacity: 0;"/><text class="annotation-text" text-anchor="middle" x="50.7578125" y="14" style="font-family: Arial; font-size: 13px; fill: rgb(42, 63, 95); fill-opacity: 1; white-space: pre;">Heavy write OFF</text></g></g></g></g></svg>